:FULLY-SPECIFIED
:FORCE-ALL-JOINTS-BE-3DOF
:DEGREES
3058
root -1.64903 15.9803 -34.0554 7.82917 -0.362297 0.55461
lfemur -35.7557 3.98819 -3.60087
ltibia 59.6077 -0 0
lfoot -8.25275 2.66031 0.463344
ltoes -36.0001 0 0
rfemur -35.7952 -6.33488 25.5934
rtibia 60.5984 -0 0
rfoot -19.5538 -28.2095 0.0325741
rtoes -7.50587 0 0
lowerback 12.6609 0.388063 -1.28376
upperback -1.31548 0.451397 1.56541
thorax -8.54486 0.320562 2.31841
lowerneck 3.41743 -8.98061 -11.5408
upperneck -2.92839 -12.2975 9.22433
head -0.0785548 -6.19384 4.84173
lclavicle -3.42904e-14 -1.03368e-14 0
lhumerus 15.1502 -42.465 86.5354
lradius 68.0834 -0 0
lwrist -6.06764 0 0
lhand -28.2864 31.693 0.00327955
lfingers 7.12502 -0 0
lthumb -1.66254 61.6667 0.00316869
rclavicle -3.42904e-14 -1.03368e-14 0
rhumerus 22.4978 47.9861 -50.8699
rradius 103.02 -0 0
rwrist -44.268 0 0
rhand -5.86187 -26.0063 -0.00255139
rfingers 7.12502 -0 0
rthumb 19.9651 -55.0006 -0.00243558
3059
root -1.61281 15.9878 -34.0422 7.74439 0.122414 0.560418
lfemur -35.5003 3.89885 -3.6627
ltibia 59.1036 -0 0
lfoot -8.66581 2.34903 0.456611
ltoes -36.4482 0 0
rfemur -35.5861 -6.18354 25.3776
rtibia 60.5361 -0 0
rfoot -19.4946 -28.0573 0.0321018
rtoes -7.8942 0 0
lowerback 12.6118 0.403652 -1.23677
upperback -1.32184 0.479184 1.55745
thorax -8.52458 0.331442 2.27746
lowerneck 3.34433 -8.87548 -11.4679
upperneck -2.82836 -12.1508 9.13907
head -0.0624765 -6.11905 4.81365
lclavicle -3.42904e-14 -1.03368e-14 0
lhumerus 14.0972 -42.719 86.9777
lradius 68.2925 -0 0
lwrist -5.87838 0 0
lhand -28.2801 31.8364 0.00323201
lfingers 7.12502 -0 0
lthumb -1.65643 61.8101 0.00312276
rclavicle -3.42904e-14 -1.03368e-14 0
rhumerus 20.8072 48.437 -51.9107
rradius 103.514 -0 0
rwrist -43.9693 0 0
rhand -5.86876 -25.9039 -0.00251441
rfingers 7.12502 -0 0
rthumb 19.9585 -54.8989 -0.00240027
3060
root -1.5766 15.9952 -34.0291 7.65965 0.607133 0.565508
lfemur -35.2448 3.80978 -3.72491
ltibia 58.5995 -0 0
lfoot -9.07883 2.0378 0.447633
ltoes -36.8962 0 0
rfemur -35.3777 -6.03143 25.1624
rtibia 60.4737 -0 0
rfoot -19.4354 -27.905 0.0314722
rtoes -8.28253 0 0
lowerback 12.5627 0.419282 -1.1898
upperback -1.32821 0.506969 1.5495
thorax -8.5043 0.342337 2.23652
lowerneck 3.27139 -8.77026 -11.3951
upperneck -2.7286 -12.0039 9.05412
head -0.0464373 -6.04426 4.78559
lclavicle -3.42904e-14 -1.03368e-14 0
lhumerus 13.0372 -42.967 87.4282
lradius 68.5016 -0 0
lwrist -5.68913 0 0
lhand -28.2738 31.9798 0.00316863
lfingers 7.12502 -0 0
lthumb -1.65031 61.9536 0.00306152
rclavicle -3.42904e-14 -1.03368e-14 0
rhumerus 19.0896 48.867 -52.9804
rradius 104.008 -0 0
rwrist -43.6707 0 0
rhand -5.87565 -25.8014 -0.0024651
rfingers 7.12502 -0 0
rthumb 19.9519 -54.7971 -0.0023532
3061
root -1.54038 16.0027 -34.0159 7.57495 1.09186 0.569882
lfemur -34.9893 3.72099 -3.78752
ltibia 58.0954 -0 0
lfoot -9.49179 1.72665 0.436413
ltoes -37.3442 0 0
rfemur -35.1699 -5.87854 24.9478
rtibia 60.4113 -0 0
rfoot -19.3762 -27.7527 0.0306852
rtoes -8.67086 0 0
lowerback 12.5137 0.434952 -1.14284
upperback -1.33459 0.534754 1.54154
thorax -8.48403 0.353246 2.19558
lowerneck 3.1986 -8.66494 -11.3226
upperneck -2.62912 -11.8569 8.96948
head -0.0304371 -5.96945 4.75755
lclavicle -3.42904e-14 -1.03368e-14 0
lhumerus 11.9703 -43.2089 87.8868
lradius 68.7106 -0 0
lwrist -5.49987 0 0
lhand -28.2674 32.1231 0.0030894
lfingers 7.12502 -0 0
lthumb -1.6442 62.0971 0.00298496
rclavicle -3.42904e-14 -1.03368e-14 0
rhumerus 17.3454 49.2755 -54.0785
rradius 104.502 -0 0
rwrist -43.372 0 0
rhand -5.88255 -25.699 -0.00240346
rfingers 7.12502 -0 0
rthumb 19.9453 -54.6953 -0.00229437
3062
root -1.50417 16.0101 -34.0028 7.49026 1.57659 0.57354
lfemur -34.7337 3.63248 -3.85052
ltibia 57.5913 -0 0
lfoot -9.90468 1.41559 0.42295
ltoes -37.7922 0 0
rfemur -34.9627 -5.72488 24.7338
rtibia 60.3489 -0 0
rfoot -19.317 -27.6004 0.0297408
rtoes -9.05919 0 0
lowerback 12.4646 0.450663 -1.09589
upperback -1.34096 0.562538 1.53357
thorax -8.46376 0.364169 2.15464
lowerneck 3.12597 -8.55953 -11.2501
upperneck -2.52991 -11.7098 8.88515
head -0.0144758 -5.89464 4.72954
lclavicle -3.42904e-14 -1.03368e-14 0
lhumerus 10.8965 -43.4444 88.3532
lradius 68.9197 -0 0
lwrist -5.31062 0 0
lhand -28.2611 32.2665 0.00299432
lfingers 7.12502 -0 0
lthumb -1.63809 62.2405 0.0028931
rclavicle -3.42904e-14 -1.03368e-14 0
rhumerus 15.5752 49.6618 -55.2042
rradius 104.996 -0 0
rwrist -43.0734 0 0
rhand -5.88944 -25.5965 -0.0023295
rfingers 7.12502 -0 0
rthumb 19.9386 -54.5936 -0.00222376
3063
root -1.46795 16.0176 -33.9897 7.40559 2.06133 0.576483
lfemur -34.478 3.54426 -3.9139
ltibia 57.0872 -0 0
lfoot -10.3175 1.10463 0.407246
ltoes -38.2402 0 0
rfemur -34.7561 -5.57045 24.5205
rtibia 60.2865 -0 0
rfoot -19.2577 -27.4481 0.028639
rtoes -9.44752 0 0
lowerback 12.4156 0.466413 -1.04896
upperback -1.34735 0.590321 1.52561
thorax -8.44351 0.375107 2.11371
lowerneck 3.05349 -8.45404 -11.1779
upperneck -2.43098 -11.5625 8.80112
head 0.00144648 -5.81982 4.70156
lclavicle -3.42904e-14 -1.03368e-14 0
lhumerus 9.81603 -43.6735 88.8275
lradius 69.1288 -0 0
lwrist -5.12136 0 0
lhand -28.2548 32.4099 0.0028834
lfingers 7.12502 -0 0
lthumb -1.63197 62.384 0.00278593
rclavicle -3.42904e-14 -1.03368e-14 0
rhumerus 13.7798 50.0251 -56.3567
rradius 105.491 -0 0
rwrist -42.7748 0 0
rhand -5.89633 -25.494 -0.00224322
rfingers 7.12502 -0 0
rthumb 19.932 -54.4918 -0.0021414
3064
root -1.43173 16.0251 -33.9765 7.32091 2.54607 0.578709
lfemur -34.2222 3.45631 -3.97768
ltibia 56.5831 -0 0
lfoot -10.7302 0.793795 0.389303
ltoes -38.6883 0 0
rfemur -34.5502 -5.41525 24.3078
rtibia 60.2242 -0 0
rfoot -19.1985 -27.2959 0.0273799
rtoes -9.83585 0 0
lowerback 12.3665 0.482204 -1.00203
upperback -1.35373 0.618103 1.51764
thorax -8.42326 0.38606 2.07278
lowerneck 2.98117 -8.34845 -11.1058
upperneck -2.33232 -11.415 8.71739
head 0.01733 -5.74499 4.67359
lclavicle -3.42904e-14 -1.03368e-14 0
lhumerus 8.72884 -43.8961 89.3094
lradius 69.3379 -0 0
lwrist -4.93211 0 0
lhand -28.2484 32.5533 0.00275663
lfingers 7.12502 -0 0
lthumb -1.62586 62.5274 0.00266345
rclavicle -3.42904e-14 -1.03368e-14 0
rhumerus 11.96 50.3648 -57.5349
rradius 105.985 -0 0
rwrist -42.4761 0 0
rhand -5.90322 -25.3916 -0.00214461
rfingers 7.12502 -0 0
rthumb 19.9254 -54.3901 -0.00204726
3065
root -1.39552 16.0325 -33.9634 7.23621 3.03081 0.580218
lfemur -33.9664 3.36865 -4.04184
ltibia 56.079 -0 0
lfoot -11.1428 0.483098 0.369122
ltoes -39.1363 0 0
rfemur -34.3449 -5.2593 24.0956
rtibia 60.1618 -0 0
rfoot -19.1393 -27.1436 0.0259634
rtoes -10.2242 0 0
lowerback 12.3175 0.498034 -0.955127
upperback -1.36012 0.645885 1.50967
thorax -8.40302 0.397026 2.03186
lowerneck 2.909 -8.24277 -11.0338
upperneck -2.23393 -11.2674 8.63397
head 0.0331747 -5.67015 4.64566
lclavicle -3.42904e-14 -1.03368e-14 0
lhumerus 7.63507 -44.112 89.799
lradius 69.5469 -0 0
lwrist -4.74285 0 0
lhand -28.2421 32.6967 0.00261402
lfingers 7.12502 -0 0
lthumb -1.61974 62.6709 0.00252566
rclavicle -3.42904e-14 -1.03368e-14 0
rhumerus 10.1169 50.6802 -58.7378
rradius 106.479 -0 0
rwrist -42.1775 0 0
rhand -5.91012 -25.2891 -0.00203367
rfingers 7.12502 -0 0
rthumb 19.9188 -54.2883 -0.00194136
3066
root -1.3593 16.04 -33.9503 7.15149 3.51556 0.581011
lfemur -33.7104 3.28128 -4.10638
ltibia 55.5749 -0 0
lfoot -11.5553 0.172554 0.346703
ltoes -39.5843 0 0
rfemur -34.1403 -5.1026 23.8841
rtibia 60.0994 -0 0
rfoot -19.0801 -26.9913 0.0243895
rtoes -10.6125 0 0
lowerback 12.2685 0.513905 -0.908233
upperback -1.36652 0.673665 1.50169
thorax -8.38279 0.408008 1.99094
lowerneck 2.83699 -8.13701 -10.962
upperneck -2.13581 -11.1197 8.55084
head 0.0489807 -5.59531 4.61774
lclavicle -3.42904e-14 -1.03368e-14 0
lhumerus 6.5348 -44.3212 90.296
lradius 69.756 -0 0
lwrist -4.5536 0 0
lhand -28.2358 32.8401 0.00245557
lfingers 7.12502 -0 0
lthumb -1.61363 62.8144 0.00237256
rclavicle -3.42904e-14 -1.03368e-14 0
rhumerus 8.25175 50.9707 -59.964
rradius 106.973 -0 0
rwrist -41.8789 0 0
rhand -5.91701 -25.1866 -0.0019104
rfingers 7.12502 -0 0
rthumb 19.9121 -54.1866 -0.00182369
3067
root -1.32308 16.0475 -33.9371 7.06672 4.0003 0.581085
lfemur -33.4544 3.1942 -4.17131
ltibia 55.0708 -0 0
lfoot -11.9677 -0.137818 0.322051
ltoes -40.0323 0 0
rfemur -33.9362 -4.94514 23.6733
rtibia 60.037 -0 0
rfoot -19.0209 -26.839 0.0226583
rtoes -11.0008 0 0
lowerback 12.2195 0.529816 -0.861352
upperback -1.37291 0.701445 1.49371
thorax -8.36256 0.419004 1.95002
lowerneck 2.76513 -8.03115 -10.8904
upperneck -2.03796 -10.9719 8.46802
head 0.0647481 -5.52046 4.58986
lclavicle -3.42904e-14 -1.03368e-14 0
lhumerus 5.42815 -44.5234 90.8003
lradius 69.9651 -0 0
lwrist -4.36434 0 0
lhand -28.2294 32.9835 0.00228128
lfingers 7.12502 -0 0
lthumb -1.60752 62.9578 0.00220416
rclavicle -3.42904e-14 -1.03368e-14 0
rhumerus 6.36583 51.2357 -61.2121
rradius 107.467 -0 0
rwrist -41.5802 0 0
rhand -5.9239 -25.0842 -0.00177482
rfingers 7.12502 -0 0
rthumb 19.9055 -54.0848 -0.00169426
3068
root -1.28687 16.0549 -33.924 6.98191 4.48505 0.58044
lfemur -33.1984 3.1074 -4.23663
ltibia 54.5667 -0 0
lfoot -12.3799 -0.448005 0.295165
ltoes -40.4803 0 0
rfemur -33.7328 -4.78694 23.463
rtibia 59.9746 -0 0
rfoot -18.9617 -26.6868 0.0207698
rtoes -11.3892 0 0
lowerback 12.1706 0.545767 -0.814485
upperback -1.37932 0.729223 1.48573
thorax -8.34234 0.430014 1.90911
lowerneck 2.69342 -7.9252 -10.8189
upperneck -1.94037 -10.8238 8.38549
head 0.0804768 -5.4456 4.56199
lclavicle -3.42904e-14 -1.03368e-14 0
lhumerus 4.31524 -44.7187 91.3117
lradius 70.1742 -0 0
lwrist -4.17509 0 0
lhand -28.2231 33.1269 0.00209115
lfingers 7.12502 -0 0
lthumb -1.60141 63.1013 0.00202046
rclavicle -3.42904e-14 -1.03368e-14 0
rhumerus 4.4607 51.4746 -62.4803
rradius 107.962 -0 0
rwrist -41.2816 0 0
rhand -5.93079 -24.9817 -0.00162691
rfingers 7.12502 -0 0
rthumb 19.8989 -53.983 -0.00155306
3069
root -1.25065 16.0624 -33.9109 6.89703 4.96979 0.579074
lfemur -32.9422 3.0209 -4.30232
ltibia 54.0626 -0 0
lfoot -12.792 -0.75799 0.266049
ltoes -40.9284 0 0
rfemur -33.5301 -4.62799 23.2533
rtibia 59.9123 -0 0
rfoot -18.9025 -26.5345 0.0187239
rtoes -11.7775 0 0
lowerback 12.1216 0.561758 -0.767631
upperback -1.38572 0.757001 1.47774
thorax -8.32213 0.441039 1.8682
lowerneck 2.62186 -7.81917 -10.7475
upperneck -1.84305 -10.6757 8.30326
head 0.0961671 -5.37073 4.53415
lclavicle -3.42904e-14 -1.03368e-14 0
lhumerus 3.19622 -44.9068 91.83
lradius 70.3833 -0 0
lwrist -3.98583 0 0
lhand -28.2168 33.2703 0.00188517
lfingers 7.12502 -0 0
lthumb -1.59529 63.2448 0.00182145
rclavicle -3.42904e-14 -1.03368e-14 0
rhumerus 2.53803 51.687 -63.767
rradius 108.456 -0 0
rwrist -40.983 0 0
rhand -5.93768 -24.8792 -0.00146667
rfingers 7.12502 -0 0
rthumb 19.8923 -53.8813 -0.0014001
